<svg viewBox="0 0 56 56" version="1.1" xmlns="http://www.w3.org/2000/svg"
>
	<g id="brand-dp-logo-superzeichen" stroke="none" stroke-width="1" fill="none" fill-rule="evenodd">
		<g id="DP_Logo_SZ_rgb_schwarz-Copy">
			<g id="Boundingbox">
				<rect id="Rectangle" x="0" y="0" width="56" height="56"></rect>
			</g>
			<g id="DP_Logo_SZ" transform="translate(10.650000, 12.500000)" fill="#000000"
			   fill-rule="nonzero">
				<path
					d="M12.0530276,24.0248552 L16.9321951,24.0248552 L12.0044542,29 L7.12474093,29 L12.0530276,24.0248552 Z M0.542449215,29 L5.42325405,29 L10.3493577,24.0248552 L5.47073589,24.0248552 L0.542449215,29 Z M22.9449232,24.0248552 L18.0646641,24.0248552 L22.9929508,29 L27.8726641,29 L22.9449232,24.0248552 Z M29.5272149,24.0248552 L24.6469558,24.0248552 L29.5746967,29 L34.4538643,29 L29.5272149,24.0248552 Z M36.747526,4.11941638 C36.0549462,14.256233 28.4343851,23.134265 17.1277057,23.1299034 C4.33762836,23.126084 -0.607031354,12.0326346 0.0588058263,3.62691959 L3.81532821,2.43467374 C3.20461362,7.21838293 4.68910307,10.6685875 5.71241841,12.249704 C4.49371806,5.48237263 9.6146609,0.00436840288 16.0241624,2.59702948e-06 C21.7896575,-0.00381260702 26.5580341,4.19631787 26.5351118,10.2219044 C27.3810525,7.92194978 27.9699363,4.42047755 28.0910969,1.96944698 L36.747526,4.11941638 Z M22.970154,10.4346106 C22.970154,6.6173514 19.8690992,3.52329346 16.0410812,3.52329346 C12.215792,3.52329346 9.11419148,6.6173514 9.11419148,10.4346106 C9.11419148,14.2518698 12.215792,17.3459278 16.0410812,17.3459278 C19.8690829,17.3459278 22.970154,14.2518753 22.970154,10.4345997 L22.970154,10.4346106 Z"
					id="Shape"></path>
			</g>
		</g>
	</g>
</svg>
